<?xml version="1.0" encoding="UTF-8" standalone="no"?>
<!-- Created with Inkscape (http://www.inkscape.org/) -->

<svg
   width="86.930328mm"
   height="25.639587mm"
   viewBox="0 0 86.930328 25.639587"
   version="1.1"
   id="svg5"
   xmlns:inkscape="http://www.inkscape.org/namespaces/inkscape"
   xmlns:sodipodi="http://sodipodi.sourceforge.net/DTD/sodipodi-0.dtd"
   xmlns="http://www.w3.org/2000/svg"
   xmlns:svg="http://www.w3.org/2000/svg">
  <sodipodi:namedview
     id="namedview7"
     pagecolor="#ffffff"
     bordercolor="#000000"
     borderopacity="0.25"
     inkscape:showpageshadow="2"
     inkscape:pageopacity="0.0"
     inkscape:pagecheckerboard="0"
     inkscape:deskcolor="#d1d1d1"
     inkscape:document-units="mm"
     showgrid="false" />
  <defs
     id="defs2" />
  <g
     inkscape:label="Layer 1"
     inkscape:groupmode="layer"
     id="layer1"
     transform="translate(-22.667489,-80.04656)">
    <path
       style="fill:#000000;stroke-width:0.264583"
       id="path570"
       d="m 28.307598,84.786913 c 0.961952,0.398254 1.958627,0.697096 2.970573,0.936427 0.76302,0.0922 1.467636,0.321783 2.186826,0.573178 0.617912,0.242019 1.303177,0.23791 1.913611,0.486705 1.15754,0.513819 3.295994,2.369244 -2.393436,-1.916236 -0.08191,-0.0617 0.157023,0.132004 0.23331,0.200535 0.250527,0.225047 0.185752,0.165372 0.391281,0.423624 0.37503,0.479088 0.531268,0.993823 0.569048,1.591736 -0.0078,0.689594 -0.06134,1.385651 -0.217067,2.058308 -0.174192,0.5841 -0.326029,1.230607 -0.825865,1.622339 -0.07198,0.02864 -0.139264,0.07473 -0.215911,0.08591 -0.330113,0.04818 -0.797828,-0.49833 -0.571384,-0.334195 2.962481,2.147333 3.409497,3.347845 2.774229,1.865555 -0.292905,-1.079946 -0.202915,-2.213919 -0.118489,-3.316362 0.07056,-0.619246 0.06903,-1.447394 0.704684,-1.758497 0.58647,-0.149079 1.146289,-0.03429 1.695405,0.177025 -0.817124,-0.690606 1.623658,1.137325 0.836042,0.52915 -4.986878,-3.850709 -3.177183,-2.645038 -2.259866,-1.595491 0.607902,0.68035 0.964848,1.454494 1.135587,2.342445 0.187535,0.830204 0.234571,1.668897 0.203263,2.516236 -0.04408,0.804344 -0.156246,1.602591 -0.259227,2.400887 -0.153204,0.706838 -0.479853,1.407939 -0.940912,1.968009 -0.354819,0.490368 -0.904772,0.737269 -1.426889,1.008012 -0.484953,0.32701 -1.008209,0.6316 -1.569801,0.804535 -0.622342,0.0553 -1.212405,0.18965 -1.78457,0.443599 -0.67263,0.303291 -1.251278,0.371782 -1.961757,0.208504 -1.422768,-0.674246 -4.047489,-2.854748 1.293088,1.236665 -0.505531,-0.444525 -0.872346,-1.011177 -1.344444,-1.487161 -0.36076,-0.504648 -0.749412,-0.969323 -1.209034,-1.387576 -0.547543,-0.397865 -0.771539,-0.907796 -0.837751,-1.561661 0.02284,-0.645442 0.01891,-1.285621 -0.07423,-1.925903 -0.170317,-0.530958 -0.460295,-1.017397 -0.760521,-1.484756 -0.142193,-0.262613 -0.265483,-0.534626 -0.397125,-0.802554 0,0 -3.378777,-2.072288 -3.378777,-2.072288 v 0 c 0.120774,0.284731 0.285826,0.540875 0.376418,0.838053 0.254613,0.472266 0.562522,0.910462 0.824874,1.376894 0.184158,0.603561 0.146343,1.254513 0.112901,1.877261 0.0148,0.696813 0.110724,1.360029 0.670813,1.840455 0.48842,0.365041 0.948222,0.788082 1.228846,1.338107 0.557855,0.644681 -0.18844,-0.19314 0.427894,0.418506 0.339268,0.336686 0.556646,0.787261 0.901784,1.121919 1.329494,1.032136 3.131515,2.880838 5.014977,3.420968 0.73516,0.0871 1.434792,-0.0718 2.110281,-0.3717 0.578137,-0.21449 1.179817,-0.28556 1.776964,-0.42464 0.56328,-0.221538 1.096461,-0.517896 1.603549,-0.847384 0.570022,-0.293228 1.140239,-0.608117 1.525398,-1.138082 0.500108,-0.622708 0.863311,-1.375449 1.062577,-2.147397 0.113773,-0.807621 0.220903,-1.616987 0.277412,-2.430971 0.04627,-0.867559 0.05086,-1.733671 -0.157978,-2.584242 -0.127308,-0.933793 -0.402726,-1.784547 -1.02507,-2.513394 -1.211722,-1.636892 -2.954155,-2.885376 -4.807572,-3.706617 -0.636611,-0.173246 -1.315701,-0.206977 -1.928617,0.07364 -0.694174,0.485649 -0.855592,1.261658 -0.903537,2.076242 -0.0883,1.141934 -0.174048,2.301726 0.01668,3.437791 0.439202,1.741937 0.03366,0.458927 3.301353,3.119474 0.326989,0.266233 0.852624,0.04246 1.144176,-0.143461 0.53169,-0.485032 0.774672,-1.137711 0.962861,-1.8211 0.197728,-0.696543 0.240761,-1.426737 0.285048,-2.147494 9.66e-4,-0.629711 -0.04211,-1.257031 -0.453465,-1.768784 -0.151601,-0.30191 -0.296159,-0.515745 -0.565593,-0.726079 -1.547385,-1.207956 -2.306904,-2.281112 -3.885182,-2.797595 -0.637823,-0.154689 -1.290346,-0.256871 -1.906204,-0.493381 -0.717771,-0.249454 -1.45634,-0.378666 -2.199252,-0.53285 -1.003343,-0.255348 -1.992847,-0.56752 -2.936192,-0.998612 0,0 2.783943,2.817764 2.783943,2.817764 z"
       inkscape:export-filename="logo.svg"
       inkscape:export-xdpi="96"
       inkscape:export-ydpi="96" />
    <path
       style="fill:#000000;stroke-width:0.264583"
       id="path567"
       d="m 41.775729,97.335368 c 0.902841,-0.251699 1.866685,-0.385459 2.781204,-0.129236 0.106529,0.03741 0.21891,0.06118 0.319557,0.112427 0.172772,0.0878 0.311198,0.231852 0.47566,0.3344 0.257178,0.160352 0.534849,0.268199 0.794321,0.425896 -0.346748,-0.441754 1.313916,0.928538 0.799593,0.528736 -0.942678,-0.732789 -3.790679,-2.905225 -2.838765,-2.18448 1.129661,0.85533 2.248068,1.725415 3.372019,2.588232 0.948952,0.728477 -1.898014,-1.456806 -2.847021,-2.18521 0.415576,0.392327 0.862228,0.757284 1.260865,1.166367 0.397244,0.423418 0.55191,0.88657 0.593161,1.454534 -0.0071,0.550394 -0.40831,0.703356 -0.846137,0.432138 -0.89908,-1.205713 0.0047,0.04489 2.770178,2.031678 0.06996,0.0503 -0.09355,-0.14589 -0.125718,-0.22581 -0.108046,-0.26835 -0.142912,-0.58348 -0.208271,-0.86426 -0.159344,-0.62719 -0.335618,-1.249227 -0.503251,-1.874045 -0.131985,-0.557335 -0.413587,-1.05688 -0.615095,-1.588681 -0.263963,-0.622733 -0.293303,-1.287288 -0.275465,-1.952872 0.03913,-0.722596 0.140668,-1.43987 0.237878,-2.156397 0.07269,-0.695271 -0.04849,-1.364383 -0.254452,-2.024741 -0.236405,-0.682975 -0.265768,-1.395812 -0.23916,-2.1102 0.0017,-0.675821 0.147162,-1.308304 0.367034,-1.940701 0.229739,-0.643854 0.360783,-1.315223 0.478004,-1.986789 0.01924,-0.258996 0.05006,-0.393746 -0.0088,-0.647682 -0.309522,-1.33543 -3.701815,-3.187537 -3.743618,-3.219053 -0.6552,-0.132461 -1.294949,-0.04047 -1.879411,0.279085 -0.552126,0.40803 -0.753227,0.928452 -0.561904,1.577551 0.04552,0.07572 0.06798,0.171482 0.136585,0.22718 1.660582,1.348243 6.641572,5.098607 0.460326,0.384309 -0.09513,-0.07256 0.18375,0.153387 0.278794,0.226059 3.45283,2.640234 2.130215,1.957869 3.738654,2.75565 0.109292,0.06532 0.2167,0.133924 0.327883,0.195981 0.215701,0.120403 0.824093,0.543714 0.628053,0.393403 -4.858965,-3.725517 -3.274764,-2.734298 -2.354866,-1.664573 1.142193,1.373596 2.653781,2.266453 4.123111,3.327133 0.180218,0.130097 0.40866,0.178443 0.598365,0.294271 1.434905,0.661062 3.981824,2.802694 -1.404487,-1.320503 0.465923,0.40591 0.948906,0.8076 1.351205,1.278154 0.387051,0.515414 0.816911,0.995687 1.216009,1.500653 0.270822,0.488662 0.411437,1.055648 0.496379,1.606264 0.128081,0.565354 0.189967,1.143264 0.317945,1.708296 0.222091,0.53554 0.352694,1.075527 0.437339,1.647493 0.167389,0.68673 0.331144,1.374965 0.586388,2.035218 0.297411,0.512357 0.349777,1.095387 0.476135,1.660705 0.0612,0.0081 0.280265,1.067162 0.219092,0.709532 -1.064643,-0.678925 -2.817508,-2.068712 2.698493,2.04535 0.06842,0.051 -0.13327,-0.10786 -0.190129,-0.17154 -0.06074,-0.068 -0.335465,-0.46056 -0.381639,-0.52576 -0.404873,-0.51384 -0.619246,-1.1389 -0.765619,-1.768936 -0.128781,-0.720735 -0.06497,-1.452919 0.0074,-2.175622 0.05694,-0.687082 -0.11893,-1.357831 -0.267635,-2.022522 -0.205566,-0.79092 -0.220774,-1.606568 -0.187368,-2.417499 0.05059,-0.819937 0.163292,-1.634254 0.27418,-2.447711 0.1293,-0.780194 0.518942,-1.472255 0.807368,-2.198838 0.200067,-0.661558 0.400278,-1.314037 0.648809,-1.959231 0.156454,-0.593552 0.437987,-1.137549 0.651984,-1.709982 0.238993,-0.62503 0.218297,-1.240128 -0.09518,-1.827872 -1.106533,-1.262996 -0.484115,-0.584687 -3.582748,-2.775647 -0.112851,-0.07979 -0.608804,-0.153332 -0.740748,-0.136748 -0.310738,0.03907 -0.444715,0.176574 -0.688481,0.346815 -0.592162,0.579952 -0.658699,1.361265 -0.383775,2.108085 1.101711,1.699815 2.893184,3.047355 4.850194,3.576128 0.580596,0.200726 1.07861,0.544302 1.628374,0.80397 0.529405,0.268892 1.032582,0.542697 1.611297,0.709588 0.677937,0.171514 1.372025,0.266164 2.063507,0.36394 0.697081,0.135699 1.434833,0.108994 2.105658,0.350866 1.252692,1.021388 -0.798372,-0.655112 -2.747047,-2.071158 -0.05103,-0.03708 0.07594,0.103378 0.09562,0.163318 0.06181,0.188301 -0.05993,0.369091 -0.156182,0.514961 -0.268532,0.454621 -0.617101,0.783672 -1.067809,1.051951 -0.572799,0.181824 -1.012573,0.604393 -1.489429,0.951087 -0.500578,0.441793 -0.951836,0.936186 -1.2703,1.525172 -0.368902,0.509765 -0.595093,1.081522 -0.762376,1.682901 -0.201268,0.617949 -0.0961,1.1677 0.221371,1.715578 0.835583,1.321465 2.598626,2.200464 3.665176,2.976899 0.08242,0.06001 0.19517,0.06024 0.28896,0.100188 0.303387,0.12922 0.278665,0.13843 0.528886,0.344221 0.535484,0.419812 1.196545,0.570195 1.757816,0.946574 -5.212936,-4.503032 -2.638668,-1.906882 -1.43798,-0.872944 2.013518,1.627019 6.975543,5.253268 0.913986,0.684117 -0.295,-0.222368 0.384008,0.374258 0.629149,0.66991 1.498137,2.061091 -0.657592,0.20516 3.975044,3.081971 0.251862,-0.56988 0.28858,-1.21108 0.366399,-1.823203 0.08693,-0.732237 0.237609,-1.452287 0.157434,-2.189581 -0.100456,-0.772194 -0.451704,-1.473785 -0.83697,-2.140054 -0.354319,-0.535641 -0.611121,-1.126281 -0.971716,-1.657695 -0.418827,-0.510512 -0.532415,-1.104968 -0.555189,-1.745756 0.06634,-0.656322 0.01381,-1.308322 -0.01932,-1.964118 -0.02449,-0.678918 0.04882,-1.355555 0.125685,-2.028911 0.0837,-0.679397 0.138069,-1.35916 0.356011,-2.010661 0.276537,-0.631428 0.853881,-0.677802 1.451463,-0.806687 0.788427,-0.183052 1.565907,-0.333512 2.378382,-0.354195 0.332262,-0.0067 0.695641,0.03513 1.001304,0.181276 0.08308,0.03972 0.300351,0.21312 0.227037,0.157394 -3.045902,-2.315122 -3.720159,-3.132568 -2.729138,-1.979501 0.410302,0.841633 0.843103,1.661708 1.35759,2.445573 0.483621,0.729785 0.986891,1.445175 1.488341,2.162744 0.38233,0.567234 0.768168,1.131976 1.172135,1.684206 0.462398,0.618539 0.91184,1.249038 1.335423,1.894954 0.343757,0.634181 0.563842,1.329591 0.808815,2.006907 0.301154,0.806236 0.608491,1.610813 0.836976,2.441268 0.272638,0.805695 0.374589,1.627579 0.370302,2.473508 -0.03465,0.586282 0.06693,1.342968 -0.579186,1.595402 -0.07357,-0.01 -0.150864,-0.005 -0.220694,-0.0298 -0.160876,-0.0579 -0.538806,-0.42105 -0.401681,-0.318942 0.956237,0.712052 1.880404,1.467012 2.846049,2.166252 0.111644,0.0808 -0.191606,-0.19873 -0.277624,-0.30643 -0.09835,-0.12314 -0.183035,-0.2566 -0.274553,-0.38491 -0.521463,-0.959 -0.861089,-1.995436 -1.160241,-3.040346 -0.205702,-0.857953 -0.503743,-1.691074 -0.699053,-2.551033 -0.181281,-0.988245 -0.243667,-1.980271 -0.219508,-2.983017 -0.02261,-1.111291 -0.02304,-2.220924 0.04288,-3.330685 0.0541,-0.807757 0.156668,-1.611025 0.262678,-2.413266 0.06362,-0.632398 0.103757,-1.23946 0.680677,-1.600018 0.765057,-0.205494 1.56722,-0.08921 2.341815,-0.0039 0.811819,0.09967 1.620826,0.220591 2.430482,0.336183 0.728979,0.103968 1.458475,0.204278 2.188022,0.304189 0.615589,0.219248 1.23959,0.404889 1.750165,0.826137 1.152438,0.831884 1.237846,0.89712 -2.639033,-2.033702 -0.08559,-0.06471 0.160109,0.142872 0.241474,0.212808 0.160022,0.13755 0.312057,0.284789 0.478731,0.414201 1.114186,0.865091 2.237289,1.71864 3.355932,2.577962 -0.955524,-0.734421 -1.911048,-1.468845 -2.86657,-2.203268 0.178961,0.155399 0.376073,0.328187 0.378224,0.589255 0.0013,0.160171 -0.126938,0.357654 -0.19102,0.482656 -0.482513,0.730136 -1.18045,1.278566 -1.852215,1.825167 -0.605381,0.591582 -1.296309,1.068686 -2.067734,1.413294 -0.665347,0.276231 -1.383171,0.11523 -2.045132,0.380292 -1.617825,1.307926 1.750871,2.954857 3.347106,3.298554 0.690194,0.13565 1.388231,0.226074 2.08498,0.320328 0.114817,0.03629 0.233363,0.06242 0.344451,0.108884 0.346538,0.144973 0.322197,0.17347 0.602931,0.407678 0.09042,0.07543 0.368089,0.293887 0.274534,0.222363 -2.836558,-2.16862 -3.678173,-2.974833 -2.523834,-1.892845 0.493454,0.516753 0.866912,1.127058 1.282344,1.704172 0.352774,0.545926 0.764465,1.04983 1.159675,1.564805 0.443277,0.512307 0.713028,1.138697 1.042175,1.724067 0.34458,0.752508 0.828868,1.41875 1.273739,2.111625 0.70898,1.43679 3.277861,4.83476 4.124117,2.33932 0.233538,-0.84162 0.18006,-1.71221 0.171331,-2.574459 0.02789,-0.725119 0.04644,-1.440749 -0.01875,-2.163831 -0.114266,-0.787958 -0.30819,-1.568132 -0.538381,-2.330482 -0.202509,-0.554523 -0.454287,-1.089994 -0.660693,-1.642944 -0.238517,-0.525312 -0.367126,-1.052146 -0.390566,-1.627113 0.04175,-0.707194 0.03824,-1.4137 -0.0426,-2.118016 -0.212913,-0.746802 -0.382099,-1.492126 -0.426257,-2.268527 -0.02286,-0.66575 -0.164906,-1.321317 -0.205171,-1.984435 0,0 -3.296139,-2.212182 -3.296139,-2.212182 v 0 c -0.01171,0.671381 0.187132,1.327017 0.214314,2.000043 0.01725,0.787351 0.120774,1.563615 0.393981,2.307352 0.152596,0.674217 0.122941,1.380993 0.07448,2.06645 -0.008,0.594574 0.01523,1.193107 0.323738,1.72091 0.148418,0.57308 0.422112,1.11048 0.670437,1.645676 0.228456,0.743078 0.441731,1.49193 0.578623,2.258242 0.06106,0.718553 0.116454,1.422284 0.04647,2.144953 0.0061,0.824429 0.09503,1.658037 -0.113956,2.466223 -0.43713,1.62886 -0.779763,-0.100994 2.976582,2.74547 0.0515,0.039 -0.10734,-0.0753 -0.147359,-0.12601 -0.117222,-0.14866 -0.2634,-0.47377 -0.338903,-0.62758 -0.436243,-0.69668 -0.958659,-1.33656 -1.282609,-2.097849 C 86.396778,99.349575 86.134048,98.722046 85.750562,98.158657 85.312043,97.687081 84.947759,97.142933 84.565506,96.626334 84.173558,96.018827 83.73603,95.442035 83.314535,94.85432 82.073709,93.53589 83.084064,94.581058 79.685076,91.922458 79.2814,91.606714 78.83241,91.393096 78.319473,91.328581 c -0.688189,-0.0964 -1.381891,-0.182953 -2.052763,-0.369492 -0.08457,-0.03153 -0.172712,-0.05479 -0.253697,-0.09463 -0.06583,-0.03237 -0.240627,-0.167453 -0.18404,-0.120746 0.970777,0.801274 1.978827,1.557997 2.927571,2.385246 0.02078,0.01813 -0.429978,0.05457 -0.02542,-0.07768 0.67976,-0.179569 1.421895,-0.07631 2.064477,-0.422796 0.783146,-0.387129 1.494646,-0.880465 2.119322,-1.495057 0.712595,-0.580512 1.443293,-1.166894 1.963487,-1.935296 0.08837,-0.157369 0.290198,-0.492267 0.33209,-0.668757 0.38507,-1.622277 -4.281032,-3.490648 -3.550556,-3.443668 7.239877,5.653893 -0.939886,-0.813564 -1.441065,-1.168224 -0.584978,-0.325002 -1.213858,-0.574511 -1.874842,-0.692837 -0.728594,-0.10028 -1.457133,-0.200966 -2.185315,-0.304223 -0.810523,-0.114364 -1.620809,-0.232581 -2.435019,-0.318069 -0.852657,-0.07701 -1.74573,-0.181524 -2.543065,0.202666 -0.62564,0.480252 -0.827279,1.090667 -0.870543,1.865834 -0.107502,0.812763 -0.211814,1.626533 -0.266801,2.444888 -0.06664,1.114308 -0.08134,2.229522 -0.04159,3.345345 -0.03784,1.023756 -0.01436,2.0355 0.15817,3.047382 0.14413,0.883386 0.489999,1.713399 0.686535,2.585985 0.316155,1.066694 0.644183,2.1212 1.093083,3.142228 1.080272,1.69749 1.229979,1.42266 3.842157,3.39303 0.269082,0.20298 0.620627,0.13898 0.910008,0.0465 0.718578,-0.44842 0.8153,-1.13868 0.818497,-1.94477 0.02453,-0.871217 -0.0096,-1.732412 -0.31261,-2.561475 -0.198621,-0.841936 -0.500794,-1.655036 -0.811529,-2.461361 -0.22477,-0.707128 -0.507463,-1.396736 -0.770805,-2.088629 -0.391191,-0.671276 -0.876814,-1.281189 -1.300963,-1.932095 -0.453546,-0.50904 -0.807663,-1.105555 -1.18351,-1.672315 -0.542755,-0.688979 -1.005741,-1.438109 -1.511116,-2.154525 -0.525659,-0.765561 -1.020311,-1.545495 -1.347924,-2.419331 -0.778831,-1.819821 -2.858003,-3.131038 -4.802644,-3.069829 -0.823302,0.05428 -1.618432,0.228882 -2.422923,0.403309 -0.732286,0.160079 -1.371161,0.391523 -1.714151,1.115744 -0.238939,0.675684 -0.323787,1.371919 -0.40029,2.083279 -0.08385,0.689353 -0.166585,1.381155 -0.164486,2.076749 0.01657,0.655039 0.129145,1.302668 0.02843,1.956584 -0.0106,0.682186 0.02469,1.367697 0.420396,1.952102 0.401727,0.508995 0.673497,1.08036 0.989909,1.643294 0.428982,0.586041 0.773533,1.288016 0.92395,1.998071 0.150099,0.705403 -0.0068,1.388318 -0.09636,2.095907 -0.07023,0.547809 -0.126582,1.101207 -0.262013,1.637585 1.069679,0.778006 2.139358,1.556026 3.209033,2.334036 -0.147554,-0.0777 -0.106277,-0.0316 -0.192868,-0.23777 -0.112952,-0.26911 -0.193719,-0.53267 -0.424482,-0.73351 -0.913466,-1.467927 -2.709277,-2.447173 -3.959858,-3.379939 -0.939648,-0.700847 1.849545,1.440723 2.773544,2.162077 0.102974,0.08039 -0.206977,-0.159458 -0.310465,-0.239188 -1.634211,-1.160744 -2.68102,-3.40911 -4.770569,-3.87837 -0.588183,-0.313334 -1.22285,-0.539289 -1.745648,-0.967154 -0.692125,-0.386735 0.132068,0.06445 -0.58181,-0.296689 -0.08558,-0.0433 -0.326137,-0.200014 -0.25146,-0.139837 5.067473,4.083713 3.475888,2.828732 2.484625,1.92557 -0.279177,-0.48173 -0.61117,-0.863333 -0.399168,-1.45931 0.14815,-0.578513 0.353353,-1.12477 0.711845,-1.610085 0.276846,-0.54137 0.696369,-0.989828 1.156288,-1.383311 0.475797,-0.342493 0.923671,-0.717867 1.480089,-0.927675 0.474949,-0.318149 0.874997,-0.682294 1.17113,-1.177396 1.23712,-1.794867 -1.320832,-3.163589 -3.170807,-3.794175 -0.706332,-0.1394 -1.425556,-0.199394 -2.136362,-0.31283 -0.679623,-0.1024 -1.364347,-0.202487 -2.019371,-0.417788 -0.546887,-0.206471 -1.039344,-0.512439 -1.570424,-0.754282 -0.535567,-0.296088 -1.08443,-0.562838 -1.669449,-0.749934 -0.273223,-0.09784 -0.401858,-0.131613 -0.657024,-0.271874 -0.103057,-0.05665 -0.389674,-0.262462 -0.298099,-0.188684 5.103695,4.111969 3.203776,2.709946 2.301326,1.721039 -0.361292,-0.504378 -0.439712,-1.166271 0.04223,-1.627992 0.298337,-0.156241 0.485757,-0.172874 0.813855,-0.05025 0.112284,0.04196 0.416714,0.231778 0.324241,0.155508 -2.351029,-1.939067 -3.908033,-2.89426 -2.591517,-2.07598 0.427021,0.415367 0.509592,0.941092 0.310163,1.501989 -0.20514,0.574679 -0.502563,1.110099 -0.648146,1.70586 -0.244808,0.647287 -0.46691,1.291414 -0.640224,1.962227 -0.28973,0.759392 -0.698527,1.47292 -0.857527,2.27772 -0.111482,0.822931 -0.23287,1.645541 -0.29574,2.473981 -0.04803,0.839139 -0.05135,1.683362 0.119552,2.510922 0.169611,0.622834 0.309458,1.264204 0.345181,1.909042 -0.08338,0.753562 -0.159465,1.514284 -0.07343,2.271548 0.10349,0.671139 0.306048,1.343724 0.667579,1.922444 0.137553,0.168774 0.377851,0.667916 0.513573,0.776566 0.777498,0.62241 2.208361,2.68781 3.738422,2.54151 0.502331,-0.31572 0.44171,-0.76266 0.15777,-1.23735 -0.128634,-0.58347 -0.168583,-1.19156 -0.432273,-1.735352 -0.339071,-0.6056 -0.427526,-1.293147 -0.645687,-1.945631 -0.106512,-0.566854 -0.0857,-1.163253 -0.419734,-1.66485 -0.130875,-0.557327 -0.185436,-1.120443 -0.344107,-1.672317 -0.04824,-0.607783 -0.22287,-1.183236 -0.397207,-1.763544 -0.317534,-0.573352 -0.863206,-0.972545 -1.193255,-1.544272 -0.137997,-0.161129 -0.23717,-0.354658 -0.38519,-0.506631 -0.0685,-0.07034 -0.166329,-0.105155 -0.242734,-0.166808 -0.253411,-0.204484 -0.410293,-0.495141 -0.694374,-0.664844 -1.633954,-1.268536 -3.002394,-2.564496 -4.815965,-3.438415 -1.331065,-0.663507 -2.234891,-1.640466 2.228761,1.897678 0.392364,0.311007 -1.148581,-0.777729 -0.760524,-0.702555 -0.152426,-0.17671 -0.253214,-0.401895 -0.434254,-0.549153 -1.505913,-1.224916 -2.730693,-2.327066 -4.35224,-3.187622 -1.321836,-0.810731 -0.369531,-0.242644 2.482363,1.988268 0.09279,0.07259 -0.188273,-0.141689 -0.281337,-0.213927 -1.117574,-0.867454 -2.190706,-1.795089 -3.350565,-2.605128 -0.937741,-0.654916 4.126942,3.148955 2.681609,2.140887 -0.333085,-0.406566 -0.264712,-0.784354 0.188073,-1.076594 0.526765,-0.222501 1.109193,-0.264371 1.632666,-0.0042 -6.648817,-5.25943 -2.996738,-2.694951 -2.36861,-1.760501 0.125851,0.187225 0.09679,0.300666 0.105718,0.520135 -0.109095,0.651421 -0.226676,1.304278 -0.444131,1.929995 -0.233343,0.665676 -0.42306,1.322521 -0.426759,2.037215 -0.04611,0.7476 -0.05383,1.501482 0.162631,2.227245 0.195829,0.62092 0.382492,1.216049 0.350447,1.879776 -0.100084,0.727096 -0.203733,1.454469 -0.259851,2.186592 -0.03876,0.700939 -0.04941,1.411404 0.181542,2.08487 0.205177,0.524499 0.418671,1.029335 0.644343,1.544236 0.131972,0.63184 0.348731,1.242071 0.505627,1.867982 0.439088,2.102655 0.457308,2.786455 3.722873,3.988305 0.689914,0.05 1.216129,-0.30381 1.3137,-1.01673 -2.46e-4,-0.59378 -0.02728,-1.2016 -0.459697,-1.656679 -0.29822,-0.506759 -0.834455,-0.808279 -1.227435,-1.239442 -1.111596,-0.871893 -2.245374,-1.716231 -3.334785,-2.615699 -0.918122,-0.758048 3.777155,2.900405 2.820737,2.191289 -1.381694,-1.024446 -2.657669,-2.268029 -4.18673,-3.095641 -0.546449,-0.287034 -1.053242,-0.670611 -1.673535,-0.778619 -0.983111,-0.122981 -1.956304,-2.7e-4 -2.910347,0.260859 0,0 2.968462,2.61996 2.968462,2.61996 z" />
    <path
       style="fill:#000000;stroke-width:0.250374"
       id="path564"
       d="m 94.122183,90.51526 c -0.06715,-0.523026 -0.09711,-1.282557 0.594784,-1.457142 0.04194,0.02376 0.09803,0.03445 0.125838,0.07127 0.037,0.04897 0.109894,0.204531 0.05639,0.169891 -1.009192,-0.653345 -1.96252,-1.373532 -2.955387,-2.046684 -0.057,-0.03864 0.103623,0.08929 0.145154,0.141383 0.120999,0.151803 0.128579,0.22669 0.190681,0.405266 0.120838,0.586856 0.03476,1.185595 -0.03788,1.772279 -0.101302,0.459738 -0.300683,0.908369 -0.766579,1.152838 -0.326082,0.120054 -0.630022,-0.01738 -0.891121,-0.204272 -0.06982,-0.04998 -0.2547,-0.223362 -0.183087,-0.175467 0.980496,0.65576 1.941931,1.334116 2.912894,2.001174 -0.352685,-0.449367 -0.616756,-0.964076 -0.77384,-1.494425 -0.127793,-0.596458 -0.05162,-1.203956 0.0201,-1.80119 0.117143,-0.595062 0.386982,-1.176369 1.012699,-1.453609 0.598609,-0.132009 1.266989,-0.126956 1.850906,0.05734 -0.158725,-0.302602 1.156825,0.674593 0.814354,0.442802 -4.720628,-3.195014 -3.348994,-2.481385 -2.385814,-1.502534 0.434519,0.571226 0.896053,1.124478 1.346911,1.685384 0.463023,0.586896 1.071282,1.059294 1.665789,1.535037 1.138955,0.784819 2.277901,1.569639 3.416845,2.354457 0.10994,0.07031 0.43666,0.284963 0.3298,0.210947 -0.931307,-0.645027 -1.859381,-1.294027 -2.803317,-1.924132 -0.102557,-0.06846 0.185969,0.157377 0.277076,0.237796 0.226028,0.199506 0.294125,0.268315 0.507302,0.471778 0.490545,0.438239 0.900892,0.866622 1.074032,1.47441 0.10665,0.697223 0.007,1.400089 -0.0866,2.093021 -0.126467,0.757691 -0.244097,1.508323 -0.161987,2.274885 0.0854,0.556854 0.382997,1.052044 0.492707,1.604057 0.141657,0.524118 0.233057,1.044723 0.236937,1.58382 -0.018,0.62778 -0.11182,1.25091 -0.201537,1.87271 -0.25395,1.50609 -0.41339,0.46588 3.225947,2.25956 0.0382,0.0188 0.009,-0.20442 -0.0188,-0.44976 -0.0354,-0.51305 -0.13576,-1.01612 -0.26564,-1.51639 -0.18166,-0.56118 -0.3632,-1.12276 -0.53675,-1.68604 -0.12135,-0.689667 -0.24125,-1.373418 -0.44505,-2.048704 -0.15957,-0.651995 -0.25184,-1.315986 -0.38584,-1.972812 -0.17647,-0.63003 -0.21165,-1.272413 -0.18653,-1.91753 0.0416,-0.647194 0.14024,-1.289769 0.23572,-1.931748 0.0979,-0.647302 0.19718,-1.29443 0.29527,-1.94171 0.0979,-0.647324 0.1952,-1.294718 0.2923,-1.942139 0.10448,-0.736675 0.21779,-1.472274 0.32916,-2.2081 0.0933,-0.351712 0.0878,-1.34732 0.6522,-1.375861 0.43927,0.285513 0.92788,0.482472 1.44516,0.640872 0.0903,0.04723 0.35375,0.199118 0.27108,0.141663 -0.95774,-0.665639 -1.93025,-1.314033 -2.8983,-1.967598 -0.0748,-0.05049 0.14448,0.106827 0.21843,0.158299 1.5103,1.051311 2.33507,1.998334 3.8767,2.526458 0.62646,0.234245 1.25394,0.207002 1.91104,0.173721 0.54619,-0.02463 1.0919,0.01561 1.63549,0.06138 0,0 -2.87793,-2.442289 -2.87793,-2.442289 v 0 c -0.55756,-0.03743 -1.11649,-0.06244 -1.67516,-0.03077 -0.62052,0.02135 -1.21357,-0.04226 -1.77983,-0.295632 -0.16913,-0.08224 -0.64315,-0.377414 -0.49192,-0.270752 6.75128,4.76163 0.3754,0.249988 -0.6935,-0.453598 -0.0872,-0.05739 -0.199,-0.07597 -0.2985,-0.11396 -0.53138,-0.196884 -1.07037,-0.595024 -1.66198,-0.455444 -0.642297,0.358363 -0.792444,1.045127 -0.883364,1.680662 -0.10915,0.735511 -0.21683,1.471233 -0.332768,2.205899 -0.09713,0.647288 -0.194266,1.294574 -0.292039,1.941779 -0.09791,0.647468 -0.196828,1.294813 -0.295639,1.942171 -0.09814,0.650778 -0.199388,1.30179 -0.255279,1.956979 -0.04275,0.666719 -0.04413,1.33692 0.132854,1.991449 0.168712,0.656354 0.245732,1.327847 0.372719,1.989796 0.199332,0.675311 0.403592,1.343265 0.454222,2.044383 0.13552,0.572977 0.35529,1.127372 0.510957,1.696116 0.20231,0.46059 0.25954,0.97159 0.30045,1.46115 0.0199,0.1254 -0.0402,0.29473 0.0701,0.37481 3.610607,2.63013 3.085537,3.37177 3.299517,1.79776 0.0939,-0.63291 0.19074,-1.26648 0.23124,-1.90454 0.0198,-0.54974 0.004,-1.10002 -0.20292,-1.62583 -0.0604,-0.576194 -0.3006,-1.070914 -0.49592,-1.612509 -0.17213,-0.734266 -0.0246,-1.464921 0.10075,-2.19645 0.10122,-0.72215 0.20288,-1.449619 0.15361,-2.179392 -0.0829,-0.673855 -0.38012,-1.189069 -0.96183,-1.635743 -1.6412,-1.853855 -8.146659,-5.666387 -1.70341,-1.401815 -0.611967,-0.44254 -1.194884,-0.926519 -1.712795,-1.456724 -0.441468,-0.568617 -0.938513,-1.096832 -1.331475,-1.695769 -1.112875,-1.449639 -2.827886,-2.659143 -4.691598,-3.214928 -0.689227,-0.09641 -1.407077,-0.123118 -2.054413,0.142771 -0.685611,0.394045 -1.053783,1.012645 -1.231054,1.719442 -0.08298,0.627323 -0.169441,1.261163 -0.09485,1.893459 0.107445,0.582517 0.382309,1.10345 0.675393,1.628296 1.081335,0.794391 2.152241,1.600331 3.244005,2.383178 0.414203,0.297004 0.973067,0.275287 1.413016,0.05764 0.5231,-0.348431 0.819033,-0.833221 0.961293,-1.402163 0.08326,-0.617692 0.17234,-1.240781 0.11854,-1.864335 -0.241591,-1.552302 -2.144718,-3.368024 -3.92619,-2.982289 -0.746699,0.39843 -0.94831,1.070564 -0.890109,1.824341 0,0 3.319996,1.946171 3.319996,1.946171 z" />
    <path
       style="fill:#ff5555;stroke-width:0.264583"
       id="path561"
       d="m 80.618516,101.84624 c 1.043118,1.71254 2.928691,4.24381 5.048513,3.78531 0.619852,-0.38217 0.609686,-1.01723 0.50621,-1.65937 -0.447412,-1.68051 -2.688578,-3.40427 -4.133069,-3.48361 -0.599945,0.0747 -1.047009,0.47344 -1.577681,0.71352 -0.62827,0.31321 -0.911149,0.89391 -1.118191,1.53023 -0.02474,0.0815 -0.04952,0.16313 -0.07425,0.24469 0,0 3.230351,2.3063 3.230351,2.3063 v 0 c 0.01999,-0.0802 0.04011,-0.1603 0.06016,-0.24045 0.160006,-0.5501 0.36317,-1.02716 0.920145,-1.27257 0.447974,-0.2296 0.879785,-0.5939 1.413932,-0.522 1.378378,0.48897 0.144211,0.076 -2.707795,-2.20241 -0.290866,-0.23235 0.433442,0.24285 0.561016,0.52686 0.03798,0.0846 0.05479,0.17711 0.08218,0.26567 0.118393,0.3184 0.311879,0.94649 -0.08801,1.11947 -1.286699,-0.0926 -3.062926,-2.10822 2.155803,2.02843 0.123153,0.0976 -0.252199,-0.18995 -0.360433,-0.30389 -0.22068,-0.23229 -0.370585,-0.50383 -0.536931,-0.77328 0,0 -3.381933,-2.0629 -3.381933,-2.0629 z" />
  </g>
</svg>
